<mxfile host="Electron" agent="Mozilla/5.0 (X11; Linux x86_64) AppleWebKit/537.36 (KHTML, like Gecko) draw.io/24.7.17 Chrome/132.0.6834.210 Electron/34.3.3 Safari/537.36" version="24.7.17">
  <diagram id="bVV4oU35jCer4zZHsvdt" name="Page-1">
    <mxGraphModel dx="6926" dy="3671" grid="1" gridSize="10" guides="1" tooltips="1" connect="1" arrows="1" fold="1" page="1" pageScale="1" pageWidth="850" pageHeight="1100" math="0" shadow="0">
      <root>
        <mxCell id="0" />
        <mxCell id="1" parent="0" />
        <mxCell id="x1cZmiVU4N8H2JJyKvRr-1" value="" style="shape=rect;fillColor=#fff2cc;strokeColor=none;fontSize=24;html=1;whiteSpace=wrap;align=left;verticalAlign=top;spacing=5;rounded=0;" parent="1" vertex="1">
          <mxGeometry x="-2500" y="-930" width="1610" height="180" as="geometry" />
        </mxCell>
        <mxCell id="x1cZmiVU4N8H2JJyKvRr-2" value="" style="shape=rect;fillColor=#fff2cc;strokeColor=none;fontSize=24;html=1;whiteSpace=wrap;align=left;verticalAlign=top;spacing=5;rounded=0;" parent="1" vertex="1">
          <mxGeometry x="-2500" y="-1146.8" width="1610" height="196.8" as="geometry" />
        </mxCell>
        <mxCell id="x1cZmiVU4N8H2JJyKvRr-3" value="Добавление api для работы с вкладами" style="shape=rect;fillColor=#ffe6cc;strokeColor=#d79b00;fontSize=18;html=1;whiteSpace=wrap;align=left;verticalAlign=top;spacing=5;rounded=0;" parent="1" vertex="1">
          <mxGeometry x="-1660" y="-1073.4" width="290" height="50" as="geometry" />
        </mxCell>
        <mxCell id="x1cZmiVU4N8H2JJyKvRr-5" value="АБС" style="rounded=0;whiteSpace=wrap;html=1;fillColor=#f5f5f5;fontColor=#333333;strokeColor=#666666;fontSize=18;" parent="1" vertex="1">
          <mxGeometry x="-2630" y="-1146.8" width="120" height="196.8" as="geometry" />
        </mxCell>
        <mxCell id="x1cZmiVU4N8H2JJyKvRr-6" value="Сайт" style="rounded=0;whiteSpace=wrap;html=1;fillColor=#f5f5f5;fontColor=#333333;strokeColor=#666666;fontSize=18;" parent="1" vertex="1">
          <mxGeometry x="-2630" y="-930" width="120" height="180" as="geometry" />
        </mxCell>
        <mxCell id="x1cZmiVU4N8H2JJyKvRr-7" value="6 месяцев" style="shape=step;perimeter=stepPerimeter;whiteSpace=wrap;html=1;fixedSize=1;size=10;fillColor=#f5f5f5;strokeColor=#666666;fontSize=18;fontStyle=1;align=center;rounded=0;fontColor=#333333;" parent="1" vertex="1">
          <mxGeometry x="-2500" y="-1240" width="1610" height="74.4" as="geometry" />
        </mxCell>
        <mxCell id="x1cZmiVU4N8H2JJyKvRr-9" value="Разработать сайт" style="shape=rect;fillColor=#ffe6cc;strokeColor=#d79b00;fontSize=18;html=1;whiteSpace=wrap;align=center;verticalAlign=top;spacing=5;rounded=0;" parent="1" vertex="1">
          <mxGeometry x="-2500" y="-870" width="280" height="60" as="geometry" />
        </mxCell>
        <mxCell id="x1cZmiVU4N8H2JJyKvRr-10" value="" style="shape=rect;fillColor=#fff2cc;strokeColor=none;fontSize=24;html=1;whiteSpace=wrap;align=left;verticalAlign=top;spacing=5;rounded=0;" parent="1" vertex="1">
          <mxGeometry x="-2500" y="-740" width="1610" height="180" as="geometry" />
        </mxCell>
        <mxCell id="x1cZmiVU4N8H2JJyKvRr-11" value="SSO" style="rounded=0;whiteSpace=wrap;html=1;fillColor=#f5f5f5;fontColor=#333333;strokeColor=#666666;fontSize=18;" parent="1" vertex="1">
          <mxGeometry x="-2630" y="-740" width="120" height="180" as="geometry" />
        </mxCell>
        <mxCell id="x1cZmiVU4N8H2JJyKvRr-13" value="Настроить keyclock" style="shape=rect;fillColor=#ffe6cc;strokeColor=#d79b00;fontSize=18;html=1;whiteSpace=wrap;align=center;verticalAlign=top;spacing=5;rounded=0;" parent="1" vertex="1">
          <mxGeometry x="-2500" y="-680" width="280" height="60" as="geometry" />
        </mxCell>
        <mxCell id="x1cZmiVU4N8H2JJyKvRr-14" value="" style="shape=rect;fillColor=#fff2cc;strokeColor=none;fontSize=24;html=1;whiteSpace=wrap;align=left;verticalAlign=top;spacing=5;rounded=0;" parent="1" vertex="1">
          <mxGeometry x="-2500" y="-550" width="1610" height="180" as="geometry" />
        </mxCell>
        <mxCell id="x1cZmiVU4N8H2JJyKvRr-15" value="Сайт для менеджеров" style="rounded=0;whiteSpace=wrap;html=1;fillColor=#f5f5f5;fontColor=#333333;strokeColor=#666666;fontSize=18;" parent="1" vertex="1">
          <mxGeometry x="-2630" y="-550" width="120" height="180" as="geometry" />
        </mxCell>
        <mxCell id="x1cZmiVU4N8H2JJyKvRr-16" value="Обучить персонал работе с сайтом" style="shape=rect;fillColor=#ffe6cc;strokeColor=#d79b00;fontSize=18;html=1;whiteSpace=wrap;align=center;verticalAlign=top;spacing=5;rounded=0;" parent="1" vertex="1">
          <mxGeometry x="-1370" y="-490" width="480" height="60" as="geometry" />
        </mxCell>
        <mxCell id="N8SZx_r4Qzllbkt7QVAP-1" value="" style="shape=rect;fillColor=#fff2cc;strokeColor=none;fontSize=24;html=1;whiteSpace=wrap;align=left;verticalAlign=top;spacing=5;rounded=0;" vertex="1" parent="1">
          <mxGeometry x="-2500" y="-360" width="1610" height="180" as="geometry" />
        </mxCell>
        <mxCell id="N8SZx_r4Qzllbkt7QVAP-2" value="Сервис заявок" style="rounded=0;whiteSpace=wrap;html=1;fillColor=#f5f5f5;fontColor=#333333;strokeColor=#666666;fontSize=18;" vertex="1" parent="1">
          <mxGeometry x="-2630" y="-360" width="120" height="180" as="geometry" />
        </mxCell>
        <mxCell id="N8SZx_r4Qzllbkt7QVAP-4" value="Разработка сервиса" style="shape=rect;fillColor=#ffe6cc;strokeColor=#d79b00;fontSize=18;html=1;whiteSpace=wrap;align=center;verticalAlign=top;spacing=5;rounded=0;" vertex="1" parent="1">
          <mxGeometry x="-2220" y="-290" width="280" height="60" as="geometry" />
        </mxCell>
        <mxCell id="N8SZx_r4Qzllbkt7QVAP-5" value="" style="shape=rect;fillColor=#fff2cc;strokeColor=none;fontSize=24;html=1;whiteSpace=wrap;align=left;verticalAlign=top;spacing=5;rounded=0;" vertex="1" parent="1">
          <mxGeometry x="-2500" y="-170" width="1610" height="180" as="geometry" />
        </mxCell>
        <mxCell id="N8SZx_r4Qzllbkt7QVAP-6" value="Сервис ставок" style="rounded=0;whiteSpace=wrap;html=1;fillColor=#f5f5f5;fontColor=#333333;strokeColor=#666666;fontSize=18;" vertex="1" parent="1">
          <mxGeometry x="-2630" y="-170" width="120" height="180" as="geometry" />
        </mxCell>
        <mxCell id="N8SZx_r4Qzllbkt7QVAP-8" value="Разработка сервиса" style="shape=rect;fillColor=#ffe6cc;strokeColor=#d79b00;fontSize=18;html=1;whiteSpace=wrap;align=center;verticalAlign=top;spacing=5;rounded=0;" vertex="1" parent="1">
          <mxGeometry x="-1940" y="-110" width="280" height="60" as="geometry" />
        </mxCell>
        <mxCell id="N8SZx_r4Qzllbkt7QVAP-9" value="" style="shape=rect;fillColor=#fff2cc;strokeColor=none;fontSize=24;html=1;whiteSpace=wrap;align=left;verticalAlign=top;spacing=5;rounded=0;" vertex="1" parent="1">
          <mxGeometry x="-2500" y="20" width="1610" height="180" as="geometry" />
        </mxCell>
        <mxCell id="N8SZx_r4Qzllbkt7QVAP-10" value="Сервис вкладов" style="rounded=0;whiteSpace=wrap;html=1;fillColor=#f5f5f5;fontColor=#333333;strokeColor=#666666;fontSize=18;" vertex="1" parent="1">
          <mxGeometry x="-2630" y="20" width="120" height="180" as="geometry" />
        </mxCell>
        <mxCell id="N8SZx_r4Qzllbkt7QVAP-13" value="" style="shape=rect;fillColor=#fff2cc;strokeColor=none;fontSize=24;html=1;whiteSpace=wrap;align=left;verticalAlign=top;spacing=5;rounded=0;" vertex="1" parent="1">
          <mxGeometry x="-2500" y="210" width="1610" height="180" as="geometry" />
        </mxCell>
        <mxCell id="N8SZx_r4Qzllbkt7QVAP-14" value="Сервис уведомлений" style="rounded=0;whiteSpace=wrap;html=1;fillColor=#f5f5f5;fontColor=#333333;strokeColor=#666666;fontSize=18;" vertex="1" parent="1">
          <mxGeometry x="-2630" y="210" width="120" height="180" as="geometry" />
        </mxCell>
        <mxCell id="N8SZx_r4Qzllbkt7QVAP-15" value="Разработка отправки данных на почту" style="shape=rect;fillColor=#ffe6cc;strokeColor=#d79b00;fontSize=18;html=1;whiteSpace=wrap;align=center;verticalAlign=top;spacing=5;rounded=0;" vertex="1" parent="1">
          <mxGeometry x="-2220" y="270" width="290" height="60" as="geometry" />
        </mxCell>
        <mxCell id="N8SZx_r4Qzllbkt7QVAP-16" value="Разработка отправки уведомлений по смс" style="shape=rect;fillColor=#ffe6cc;strokeColor=#d79b00;fontSize=18;html=1;whiteSpace=wrap;align=center;verticalAlign=top;spacing=5;rounded=0;" vertex="1" parent="1">
          <mxGeometry x="-2500" y="270" width="280" height="60" as="geometry" />
        </mxCell>
        <mxCell id="N8SZx_r4Qzllbkt7QVAP-21" value="Разработать сайт" style="shape=rect;fillColor=#ffe6cc;strokeColor=#d79b00;fontSize=18;html=1;whiteSpace=wrap;align=center;verticalAlign=top;spacing=5;rounded=0;" vertex="1" parent="1">
          <mxGeometry x="-2500" y="-490" width="280" height="60" as="geometry" />
        </mxCell>
        <mxCell id="N8SZx_r4Qzllbkt7QVAP-22" value="Провести тестирование на целевой группе" style="shape=rect;fillColor=#ffe6cc;strokeColor=#d79b00;fontSize=18;html=1;whiteSpace=wrap;align=center;verticalAlign=top;spacing=5;rounded=0;" vertex="1" parent="1">
          <mxGeometry x="-2220" y="-870" width="280" height="60" as="geometry" />
        </mxCell>
        <mxCell id="N8SZx_r4Qzllbkt7QVAP-23" value="Разработка сервиса" style="shape=rect;fillColor=#ffe6cc;strokeColor=#d79b00;fontSize=18;html=1;whiteSpace=wrap;align=center;verticalAlign=top;spacing=5;rounded=0;" vertex="1" parent="1">
          <mxGeometry x="-1660" y="80" width="280" height="60" as="geometry" />
        </mxCell>
      </root>
    </mxGraphModel>
  </diagram>
</mxfile>
